<mxfile host="app.diagrams.net" modified="2022-01-13T06:25:11.167Z" agent="5.0 (Macintosh; Intel Mac OS X 10_15_7) AppleWebKit/537.36 (KHTML, like Gecko) Chrome/97.0.4692.71 Safari/537.36" etag="_F4SRAjrrHQ9gZV7M1do" version="16.2.6" type="github">
  <diagram id="kgpKYQtTHZ0yAKxKKP6v" name="Page-1">
    <mxGraphModel dx="1298" dy="809" grid="1" gridSize="10" guides="1" tooltips="1" connect="1" arrows="1" fold="1" page="1" pageScale="1" pageWidth="850" pageHeight="1100" math="0" shadow="0">
      <root>
        <mxCell id="0" />
        <mxCell id="1" parent="0" />
        <mxCell id="V8KlwXVwHzffhlrCO986-4" value="" style="shape=umlLifeline;participant=umlActor;perimeter=lifelinePerimeter;whiteSpace=wrap;html=1;container=1;collapsible=0;recursiveResize=0;verticalAlign=top;spacingTop=36;outlineConnect=0;comic=1;" vertex="1" parent="1">
          <mxGeometry x="150" y="130" width="20" height="300" as="geometry" />
        </mxCell>
        <mxCell id="V8KlwXVwHzffhlrCO986-5" value="签到页" style="shape=umlLifeline;perimeter=lifelinePerimeter;whiteSpace=wrap;html=1;container=1;collapsible=0;recursiveResize=0;outlineConnect=0;comic=1;" vertex="1" parent="1">
          <mxGeometry x="250" y="130" width="100" height="300" as="geometry" />
        </mxCell>
        <mxCell id="V8KlwXVwHzffhlrCO986-9" value="" style="html=1;points=[];perimeter=orthogonalPerimeter;comic=1;" vertex="1" parent="V8KlwXVwHzffhlrCO986-5">
          <mxGeometry x="45" y="80" width="10" height="120" as="geometry" />
        </mxCell>
        <mxCell id="V8KlwXVwHzffhlrCO986-27" value="无车" style="curved=1;endArrow=classic;html=1;rounded=0;entryX=1.1;entryY=0.925;entryDx=0;entryDy=0;entryPerimeter=0;exitX=1;exitY=0.5;exitDx=0;exitDy=0;exitPerimeter=0;" edge="1" parent="V8KlwXVwHzffhlrCO986-5" source="V8KlwXVwHzffhlrCO986-9" target="V8KlwXVwHzffhlrCO986-9">
          <mxGeometry width="50" height="50" relative="1" as="geometry">
            <mxPoint x="60" y="110" as="sourcePoint" />
            <mxPoint x="105" y="60" as="targetPoint" />
            <Array as="points">
              <mxPoint x="80" y="150" />
              <mxPoint x="80" y="190" />
            </Array>
          </mxGeometry>
        </mxCell>
        <mxCell id="V8KlwXVwHzffhlrCO986-29" value="带加盟车、长租、自营车出勤" style="html=1;verticalAlign=bottom;endArrow=block;rounded=0;entryX=0.1;entryY=0.09;entryDx=0;entryDy=0;entryPerimeter=0;" edge="1" parent="V8KlwXVwHzffhlrCO986-5">
          <mxGeometry width="80" relative="1" as="geometry">
            <mxPoint x="55" y="90" as="sourcePoint" />
            <mxPoint x="206" y="89" as="targetPoint" />
          </mxGeometry>
        </mxCell>
        <mxCell id="V8KlwXVwHzffhlrCO986-7" value="车辆列表" style="shape=umlLifeline;perimeter=lifelinePerimeter;whiteSpace=wrap;html=1;container=1;collapsible=0;recursiveResize=0;outlineConnect=0;comic=1;" vertex="1" parent="1">
          <mxGeometry x="410" y="130" width="100" height="300" as="geometry" />
        </mxCell>
        <mxCell id="V8KlwXVwHzffhlrCO986-36" value="" style="html=1;points=[];perimeter=orthogonalPerimeter;comic=1;" vertex="1" parent="V8KlwXVwHzffhlrCO986-7">
          <mxGeometry x="45" y="80" width="10" height="110" as="geometry" />
        </mxCell>
        <mxCell id="V8KlwXVwHzffhlrCO986-37" value="获取车辆列表" style="edgeStyle=orthogonalEdgeStyle;html=1;align=left;spacingLeft=2;endArrow=block;rounded=0;entryX=1;entryY=0;" edge="1" target="V8KlwXVwHzffhlrCO986-36" parent="V8KlwXVwHzffhlrCO986-7">
          <mxGeometry relative="1" as="geometry">
            <mxPoint x="55" y="60" as="sourcePoint" />
            <Array as="points">
              <mxPoint x="75" y="60" />
              <mxPoint x="75" y="80" />
            </Array>
          </mxGeometry>
        </mxCell>
        <mxCell id="V8KlwXVwHzffhlrCO986-8" value="运维详情" style="shape=umlLifeline;perimeter=lifelinePerimeter;whiteSpace=wrap;html=1;container=1;collapsible=0;recursiveResize=0;outlineConnect=0;comic=1;" vertex="1" parent="1">
          <mxGeometry x="570" y="130" width="100" height="300" as="geometry" />
        </mxCell>
        <mxCell id="V8KlwXVwHzffhlrCO986-38" value="" style="html=1;points=[];perimeter=orthogonalPerimeter;comic=1;" vertex="1" parent="V8KlwXVwHzffhlrCO986-8">
          <mxGeometry x="45" y="80" width="10" height="80" as="geometry" />
        </mxCell>
        <mxCell id="V8KlwXVwHzffhlrCO986-41" value="点击确认校验车辆是否处于出勤中" style="edgeStyle=orthogonalEdgeStyle;html=1;align=left;spacingLeft=2;endArrow=block;rounded=0;entryX=1;entryY=0;" edge="1" parent="V8KlwXVwHzffhlrCO986-8">
          <mxGeometry relative="1" as="geometry">
            <mxPoint x="55" y="60" as="sourcePoint" />
            <Array as="points">
              <mxPoint x="75" y="60" />
              <mxPoint x="75" y="80" />
            </Array>
            <mxPoint x="55" y="80" as="targetPoint" />
          </mxGeometry>
        </mxCell>
        <mxCell id="V8KlwXVwHzffhlrCO986-10" value="上线签到" style="html=1;verticalAlign=bottom;startArrow=oval;endArrow=block;startSize=8;rounded=0;" edge="1" target="V8KlwXVwHzffhlrCO986-9" parent="1">
          <mxGeometry relative="1" as="geometry">
            <mxPoint x="160" y="210" as="sourcePoint" />
            <Array as="points" />
          </mxGeometry>
        </mxCell>
        <mxCell id="V8KlwXVwHzffhlrCO986-39" value="选择车辆" style="html=1;verticalAlign=bottom;startArrow=none;endArrow=block;startSize=8;rounded=0;entryX=0.1;entryY=0.413;entryDx=0;entryDy=0;entryPerimeter=0;startFill=0;exitX=1;exitY=0.309;exitDx=0;exitDy=0;exitPerimeter=0;" edge="1" target="V8KlwXVwHzffhlrCO986-38" parent="1" source="V8KlwXVwHzffhlrCO986-36">
          <mxGeometry relative="1" as="geometry">
            <mxPoint x="470" y="243" as="sourcePoint" />
          </mxGeometry>
        </mxCell>
        <mxCell id="V8KlwXVwHzffhlrCO986-40" value="临租车出勤" style="html=1;verticalAlign=bottom;endArrow=block;rounded=0;exitX=0.9;exitY=0.417;exitDx=0;exitDy=0;exitPerimeter=0;align=right;" edge="1" parent="1" source="V8KlwXVwHzffhlrCO986-9">
          <mxGeometry width="80" relative="1" as="geometry">
            <mxPoint x="312" y="260.03999999999996" as="sourcePoint" />
            <mxPoint x="615" y="260" as="targetPoint" />
          </mxGeometry>
        </mxCell>
      </root>
    </mxGraphModel>
  </diagram>
</mxfile>
